<?xml version="1.0" standalone="no"?>
<!DOCTYPE svg PUBLIC "-//W3C//DTD SVG 20010904//EN"
 "http://www.w3.org/TR/2001/REC-SVG-20010904/DTD/svg10.dtd">
<svg version="1.0" xmlns="http://www.w3.org/2000/svg"
 width="618.000000pt" height="328.000000pt" viewBox="0 0 618.000000 328.000000"
 preserveAspectRatio="xMidYMid meet">

<g transform="translate(0.000000,328.000000) scale(0.100000,-0.100000)"
fill="#FFFFFF" stroke="none">
<path d="M190 2938 c0 -26 3 -28 43 -29 59 0 107 -19 131 -52 21 -28 21 -30
21 -945 0 -1012 1 -990 -64 -1128 -46 -97 -155 -174 -247 -174 -20 0 -24 -5
-24 -31 l0 -32 84 7 c321 24 537 162 628 399 48 125 50 161 57 1037 6 768 7
827 24 858 22 40 43 50 122 60 54 6 60 9 63 32 l3 25 -421 0 -420 0 0 -27z"/>
<path d="M1150 2938 c0 -26 3 -28 43 -29 59 0 107 -19 131 -52 21 -28 21 -40
27 -640 7 -662 12 -729 65 -861 85 -212 278 -319 599 -333 293 -13 506 89 605
290 78 158 82 193 90 847 6 497 9 582 24 627 19 60 58 98 119 113 65 17 67 18
67 42 l0 23 -265 0 -265 0 0 -26 c0 -24 4 -27 52 -33 71 -10 140 -49 166 -94
40 -71 44 -140 40 -693 l-4 -524 -26 -96 c-35 -129 -73 -204 -133 -264 -88
-89 -183 -120 -354 -113 -90 3 -114 8 -157 31 -89 45 -140 127 -171 274 -15
69 -17 156 -18 723 0 581 2 649 17 682 22 50 53 67 132 75 63 6 66 7 66 32 l0
26 -425 0 -425 0 0 -27z"/>
<path d="M3060 2939 c0 -25 3 -27 63 -33 78 -8 108 -29 124 -87 16 -63 16
-1545 0 -1608 -15 -56 -45 -78 -124 -92 -57 -10 -63 -14 -63 -35 l0 -24 751 0
750 0 -8 88 c-4 48 -8 196 -8 330 l0 242 -28 0 c-15 0 -29 -6 -31 -12 -2 -7
-13 -53 -24 -101 -26 -112 -72 -213 -135 -299 -57 -79 -103 -118 -184 -155
-52 -25 -72 -28 -197 -31 -165 -5 -208 4 -233 51 -17 30 -18 88 -18 832 0 750
1 802 18 836 22 44 51 58 134 66 60 6 63 7 63 32 l0 26 -425 0 -425 0 0 -26z"/>
<path d="M4757 2860 c4 -58 7 -196 8 -307 l0 -203 27 0 c24 0 28 5 33 38 47
280 144 418 346 489 68 24 90 27 278 31 197 4 204 4 197 -14 -4 -11 -212 -414
-461 -897 -300 -578 -455 -888 -455 -907 l0 -30 701 0 702 0 -8 38 c-4 20 -8
165 -10 322 -4 285 -4 285 -26 288 -25 4 -39 -12 -39 -47 0 -49 -33 -158 -71
-238 -74 -155 -214 -260 -393 -294 -54 -10 -376 -13 -376 -3 0 3 207 408 460
898 253 490 460 903 460 916 l0 25 -690 0 -691 0 8 -105z"/>
<path d="M2506 530 c-39 -12 -74 -46 -81 -80 -11 -50 17 -93 99 -154 70 -51
96 -84 96 -120 0 -25 -28 -49 -66 -57 -32 -7 -28 -8 26 -5 107 5 153 40 153
116 0 51 -23 81 -109 140 -98 67 -115 99 -74 140 45 45 119 4 144 -78 l15 -47
0 75 c0 42 -3 69 -7 62 -7 -10 -17 -9 -51 3 -47 16 -100 18 -145 5z"/>
<path d="M3454 526 c-114 -36 -173 -146 -144 -268 32 -131 172 -181 328 -117
31 13 35 12 48 -5 13 -18 14 -12 14 55 0 45 5 80 12 87 9 9 -11 12 -92 11 -83
0 -99 -3 -77 -11 31 -11 40 -36 35 -98 -4 -52 -24 -69 -64 -55 -45 16 -66 64
-72 164 -8 150 34 231 120 231 32 0 47 -7 74 -34 19 -19 34 -44 34 -58 0 -12
5 -30 10 -38 7 -10 10 9 10 64 0 70 -2 77 -14 61 -13 -18 -14 -18 -58 3 -50
25 -103 27 -164 8z"/>
<path d="M1458 520 c22 -9 22 -12 22 -195 0 -183 0 -186 -22 -195 -16 -6 9 -9
82 -9 97 -1 103 0 82 15 -21 15 -22 21 -22 189 0 168 1 174 22 189 21 15 15
16 -82 15 -73 0 -98 -3 -82 -9z"/>
<path d="M1848 520 c22 -9 22 -12 22 -184 0 -167 -1 -176 -22 -196 l-22 -20
60 0 c57 1 58 1 33 15 -32 18 -39 47 -39 174 l0 96 138 -143 c76 -80 145 -143
155 -142 15 0 17 15 17 179 0 165 2 180 21 205 l20 26 -58 -1 c-32 0 -51 -3
-43 -6 44 -16 50 -32 50 -142 l0 -106 -121 128 -121 127 -56 -1 c-44 0 -52 -2
-34 -9z"/>
<path d="M2938 520 c22 -9 22 -12 22 -195 0 -183 0 -186 -22 -195 -16 -6 9 -9
82 -9 97 -1 103 0 82 15 -21 15 -22 21 -22 189 0 168 1 174 22 189 21 15 15
16 -82 15 -73 0 -98 -3 -82 -9z"/>
<path d="M3908 520 c22 -9 22 -12 22 -195 0 -183 0 -186 -22 -195 -16 -6 9 -9
82 -9 97 -1 103 0 82 15 -20 14 -22 24 -22 100 l0 84 70 0 70 0 0 -84 c0 -76
-2 -86 -22 -100 -21 -15 -15 -16 82 -15 73 0 98 3 83 9 -23 9 -23 12 -23 195
0 183 0 186 23 195 15 6 -10 9 -83 9 -97 1 -103 0 -82 -15 20 -14 22 -24 22
-100 l0 -84 -70 0 -70 0 0 84 c0 76 2 86 22 100 21 15 15 16 -82 15 -73 0 -98
-3 -82 -9z"/>
<path d="M4531 453 l0 -78 23 51 c13 28 36 60 51 72 54 43 55 39 55 -162 0
-195 -1 -200 -50 -209 -14 -2 36 -4 110 -4 74 0 124 2 110 4 -49 9 -50 14 -50
209 0 201 1 205 55 162 15 -12 38 -44 51 -72 l23 -51 0 78 1 77 -190 0 -190 0
1 -77z"/>
<path d="M2420 203 l0 -78 47 -1 c33 -1 42 1 30 8 -24 13 -57 82 -57 118 0 16
-4 30 -10 30 -6 0 -10 -32 -10 -77z"/>
</g>
</svg>
